<svg xmlns="http://www.w3.org/2000/svg" xmlns:xlink="http://www.w3.org/1999/xlink" width="500" zoomAndPan="magnify" viewBox="0 0 375 374.999991" height="500" preserveAspectRatio="xMidYMid meet" version="1.0"><path fill="#5d56f3" d="M 305.0625 210.28125 C 301.953125 218.25 305.933594 227.085938 313.777344 230.195312 C 321.742188 233.308594 330.578125 229.324219 333.6875 221.484375 L 372.023438 123.53125 C 375.011719 115.691406 371.15625 106.855469 363.308594 103.742188 C 355.347656 100.628906 346.507812 104.488281 343.398438 112.453125 Z M 31.617188 291.679688 C 28.507812 299.648438 19.671875 303.503906 11.828125 300.394531 C 3.863281 297.28125 0.00390625 288.441406 3.117188 280.601562 L 70.203125 108.71875 C 75.054688 96.523438 84.390625 87.3125 95.59375 82.335938 C 106.792969 77.480469 119.863281 76.734375 132.058594 81.589844 L 132.308594 81.589844 C 144.507812 86.441406 153.714844 95.777344 158.570312 106.855469 C 163.425781 118.054688 164.171875 131 159.441406 143.195312 L 159.316406 143.445312 L 115.257812 255.335938 L 115.132812 255.460938 L 115.007812 255.960938 C 113.515625 260.066406 113.886719 264.546875 115.507812 268.40625 C 117.25 272.140625 120.238281 275.375 124.34375 277.121094 C 124.839844 277.371094 125.339844 277.613281 125.835938 277.742188 C 129.945312 279.109375 134.300781 278.734375 138.160156 277.121094 C 141.894531 275.503906 145.128906 272.511719 146.871094 268.53125 C 147.121094 267.90625 147.371094 267.160156 147.617188 266.539062 L 199.890625 132.367188 L 201.261719 128.886719 C 201.261719 128.636719 201.386719 128.382812 201.511719 128.136719 C 212.339844 100.007812 226.652344 64.285156 270.960938 81.464844 L 271.082031 81.464844 C 271.335938 81.589844 271.582031 81.710938 271.957031 81.839844 C 283.78125 86.691406 292.742188 95.902344 297.472656 106.855469 C 302.449219 118.054688 303.074219 131 298.34375 143.324219 L 298.464844 143.324219 L 298.34375 143.324219 C 298.34375 143.570312 298.21875 143.820312 298.09375 144.070312 L 267.851562 221.484375 C 264.734375 229.324219 255.777344 233.308594 247.933594 230.195312 C 240.09375 227.085938 236.113281 218.25 239.222656 210.28125 L 269.589844 132.863281 L 269.714844 132.367188 L 269.714844 132.246094 C 271.457031 127.890625 271.210938 123.28125 269.46875 119.175781 C 267.722656 115.316406 264.613281 112.082031 260.378906 110.339844 L 260.132812 110.214844 L 260.007812 110.089844 C 243.953125 103.867188 236.113281 123.53125 230.015625 139.210938 C 230.015625 139.460938 229.886719 139.710938 229.765625 139.957031 L 228.519531 143.445312 L 175.746094 278.734375 C 171.019531 291.054688 161.683594 300.265625 150.480469 305.246094 C 139.527344 309.980469 126.832031 310.726562 114.761719 306.367188 C 114.511719 306.246094 114.136719 306.117188 113.886719 305.996094 L 113.765625 305.996094 C 101.566406 301.140625 92.355469 291.808594 87.503906 280.730469 C 82.648438 269.898438 81.902344 257.203125 86.257812 245.257812 C 86.382812 244.882812 86.507812 244.632812 86.632812 244.257812 L 86.632812 244.136719 L 130.816406 132.246094 C 132.558594 127.890625 132.183594 123.28125 130.441406 119.175781 C 128.699219 115.195312 125.464844 111.835938 121.109375 110.214844 L 120.984375 110.089844 C 116.628906 108.46875 112.019531 108.71875 107.914062 110.464844 C 103.929688 112.207031 100.570312 115.566406 98.828125 119.921875 L 31.617188 291.679688 " fill-opacity="1" fill-rule="nonzero"/></svg>